<svg xmlns:xlink="http://www.w3.org/1999/xlink" xmlns="http://www.w3.org/2000/svg" width="201" height="158">
    <style>
        .B{opacity:.1}.C{opacity:.25}.D{fill:#65617d}.E{fill:#6c63ff}.F{fill:#e7effd}.G{fill:#fbbebe}.H{fill:#c7cce1}.I{fill:#3f3d56}.J{fill:#dcdfed}.K{stroke-miterlimit:50}
    </style>
    <defs>
        <path id="AQ" d="M1360 260.116l-1.046 1.884c-2-2.164-4.755-4.72-6.954-5.2l1.05-.8z"/>
        <path id="A"
              d="M1302.623 198.546c-14.742-.514-28.785-5.3-42.195-10.54s-26.693-11.054-41.083-13.834c-9.256-1.788-19.84-2.04-27.3 2.957-7.175 4.8-9.495 13.114-10.74 20.816-.94 5.796-1.5 11.898 1.08 17.323 1.784 3.764 4.952 6.933 7.143 10.54 7.624 12.558 2.235 28.04-6.027 40.3-3.875 5.736-8.373 11.223-11.36 17.334s-4.375 13.137-1.76 19.38c2.595 6.183 8.774 10.84 15.482 14.1 13.6 6.64 29.628 8.54 45.246 9.62 34.588 2.38 69.36 1.343 104.04.317 12.834-.382 25.723-.77 38.35-2.77 7.012-1.1 14.25-2.87 19.34-7.123 6.462-5.4 8.064-14.54 3.737-21.3-7.263-11.356-27.346-14.176-32.42-26.362-2.795-6.707.074-14.18 4.134-20.402 8.712-13.344 23.313-25.052 24.082-40.305.534-10.485-6.492-20.97-17.35-25.926-11.376-5.197-27.15-4.544-35.544 4.06-8.65 8.866-23.838 12.275-36.856 11.818z"/>
        <path id="C"
              d="M1190.48 307.906C1192.514 309.918 1202 312 1202 312s-2.32-9.6-4.364-11.603a5.075 5.075 0 00-7.185.192c-1.946 2.042-1.933 5.29.028 7.317z"/>
        <path id="D"
              d="M1197.943 324.942c2.596.537 11.057-2.813 11.057-2.813s-6.594-6.476-9.187-7.014c-1.694-.386-3.455.214-4.605 1.57s-1.51 3.255-.943 4.967 1.976 2.97 3.682 3.3z"/>
        <path id="E"
              d="M1215.488 342.77c2.604-.912 8.512-8.33 8.512-8.33s-9.18-2.126-11.784-1.213c-2.52.97-3.82 3.8-2.942 6.368s3.623 3.985 6.197 3.175z"/>
        <path id="F"
              d="M1233.523 353.948c2.632-.45 9.477-6.714 9.477-6.714s-8.418-3.646-11.05-3.195c-2.587.5-4.313 3.058-3.885 5.756s2.854 4.544 5.458 4.153z"/>
        <path id="G"
              d="M1216 313.753c0 2.625-4.995 10.247-4.995 10.247s-5.002-7.617-5.005-10.243 2.24-4.757 5-4.757 5 2.13 5 4.757z"/>
        <path id="H"
              d="M1236.7 327.492c-.825 2.553-7.984 8.508-7.984 8.508s-2.377-8.85-1.552-11.403c.473-1.72 1.882-3.05 3.67-3.464s3.663.156 4.887 1.484a4.732 4.732 0 01.972 4.875z"/>
        <path id="I"
              d="M1255.948 342.422c-.367 2.618-6.402 9.578-6.402 9.578s-3.897-8.233-3.52-10.853c.238-1.694 1.405-3.138 3.06-3.788a5.203 5.203 0 014.965.638c1.417 1.044 2.143 2.73 1.904 4.425z"/>
        <path id="J"
              d="M1256 362s-2.358-23.608-16.47-36.166c-5.92-5.27-10.033-12.162-11.5-19.824A58.41 58.41 0 011227 295"/>
        <path id="K"
              d="M1218.373 286.877c1.033 2.563 8.673 8.123 8.673 8.123s1.646-9.3.614-11.864a5.013 5.013 0 00-8.594-1.217 5.003 5.003 0 00-.703 4.958z"/>
        <path id="L"
              d="M1216.212 302.752C1218.5 304.446 1228 305 1228 305s-3.703-9.277-5.98-10.974c-1.473-1.137-3.4-1.345-5.07-.544s-2.78 2.484-2.932 4.405.686 3.78 2.194 4.862z"/>
        <path id="M"
              d="M1227.443 328.99c2.613.23 10.557-4.08 10.557-4.08s-7.158-5.66-9.764-5.883c-1.707-.192-3.378.607-4.37 2.088a5.238 5.238 0 00-.402 5.046c.742 1.635 2.264 2.717 3.978 2.83z"/>
        <path id="N"
              d="M1239.585 345.9c2.614.697 11.415-2.152 11.415-2.152s-6.35-6.898-8.96-7.595c-2.595-.648-5.213.968-5.883 3.63s.858 5.385 3.43 6.117z"/>
        <path id="O"
              d="M1238.582 302.085c-1.118 2.556-8.923 7.915-8.923 7.915s-1.328-9.456-.213-12c1.125-2.54 4.065-3.683 6.58-2.556s3.656 4.1 2.557 6.65z"/>
        <path id="P"
              d="M1252.768 322.24C1250.962 324.3 1242 327 1242 327s1.515-9.253 3.32-11.31a4.95 4.95 0 018.418 1.683 4.971 4.971 0 01-.97 4.868z"/>
        <path id="Q"
              d="M1263.296 343.522C1261.93 345.846 1254 350 1254 350s-.066-9.32 1.29-11.642 4.252-3.055 6.465-1.628 2.906 4.47 1.548 6.795z"/>
        <path id="R" d="M1211 373c0-2.76 30.668-5 68.5-5s68.5 2.24 68.5 5-30.668 5-68.5 5-68.5-2.24-68.5-5z"/>
        <path id="S"
              d="M1364.997 240.497c-1.494.15-4.63 3.586-4.682 4.33-.025.393-.354.923-.66 1.34l-.075-.918c-.352-4.4-.73-9.768-.556-10.282.298-.897.196-4.93.196-4.93l.057-.077c1.005 3.125 4.122 6.81 4.122 6.81s.55 1.594 1.194 1.643.404 2.082.404 2.082zm12.85-5.23c.198-.548-1.295-3.586-1.295-3.735s-1.544-1.843-1.544-2.79-2.042-2.987-2.042-2.987-2.74-1.146-3.038-3.637-3.28-2.54-3.287-2.54c0 0 .012-.228.017-.57 0-.77-.023-2.16-.367-2.915-.5-1.095-1.695-1.445-1.695-1.445s-.3-1.943-.896-2.542a2.867 2.867 0 01-.697-2.688c.3-.944-.398-3.342-1.843-3.684s-3.088-.897-3.088-.897-.16.03-.398.064l-.2-.064a8.696 8.696 0 01-1.046.131 1.306 1.306 0 01-.845-.28c-.5-.548-4.53-1.594-5.28-1.594s-2.9-.997-2.9-.997l-2.138-1.643c-.602-.46-1.713-2.328-1.874-2.603l-.02-.036h-.013a9.278 9.278 0 01-.39-1.088c-.023-.077-.04-.154-.062-.23a11.986 11.986 0 001.854-2.57c.05-.098.097-.198.145-.296a1.068 1.068 0 00.454-.103 2.181 2.181 0 001.057-1.272 4.84 4.84 0 00.095-.33l.023-.1a6.57 6.57 0 00.048-.229c.015-.077.013-.084.02-.128l.034-.224c.011-.074 0-.085.018-.126l.035-.282c.04-.353.082-.705.156-1.05a.036.036 0 010-.015c.296-1.352 1.105-2.493 1.677-3.742a7.035 7.035 0 00.426-1.152c.018-.06.03-.123.05-.185a8.333 8.333 0 00.135-.65 7.725 7.725 0 00-.431-4.12c-.373-.936-.93-1.78-1.307-2.712-.572-1.42-.723-3.023-1.422-4.37-1.172-2.265-3.933-3.398-6.203-2.547-1.082.406-2.02 1.195-3.12 1.542-1.47.473-3.046.118-4.57-.095s-3.205-.232-4.43.77c-1.412 1.155-1.787 3.325-3.12 4.6-.556.53-1.248.87-1.835 1.36a3.03 3.03 0 00-.921 1.268c0 .036-.023.072-.034.108a3.33 3.33 0 00-.033.128c-.01.044-.018.1-.025.15s0 .07 0 .102a1.554 1.554 0 000 .257 2.154 2.154 0 00.12.535v.038c.028.077.058.152.09.23l.048.1c0 .03.03.06.04.095.194.368.35.756.462 1.156a1.29 1.29 0 01-.046.772 2.312 2.312 0 01-.551.73 10.375 10.375 0 00-2.249 3.624c-.056.154-.1.308-.16.465v.013l.066.018a3.26 3.26 0 00.436.095c.085 0 .17.02.256.026a3.853 3.853 0 001.276-.139 6.068 6.068 0 001.008-.373v.476c.006 4.493 2.537 8.597 6.534 10.593l.044.323c.015.108.023.183.033.273l-.135-.13s-.896-.447-1.744.848-2.44 1.892-2.44 1.892-9.064 1.445-9.4 2.64l-4.236.257s-1.493.198-1.64 3.34-.948 3.437-.948 3.437-1.743 3.085-1.593 4.68-1.345 2.39-1.345 2.39l-.2 2.828s-1.644-.257-2.093 1.694-1.243 2.827-1.243 2.827-2.74 2.293-2.9 4.234l-1.692 1.046s-3.936-.897-4.832-2.5l-.275-.258a.193.193 0 01-.023-.038v.018c-.587-.558-1.838-1.73-1.647-1.46.116.25.144.533.082.802l-.294-.327-.783-.876s-5.853-6.77-9.587-7.246l-.284-.563a.639.639 0 00-.86-.283l-5.633 2.827a.639.639 0 00-.286.861l.63 1.247h-.013a.059.059 0 00-.025.082l.222.44c.015.03.05.043.082.028l.232.46a.07.07 0 00-.03.093l.42.833a.067.067 0 00.092.03l.17.337a.067.067 0 00-.028.088l.43.848a.061.061 0 00.086.028l4.084 8.125a.64.64 0 00.86.286l4.324-2.178.153.114 1.277 1.652a20.42 20.42 0 00-.656 1.82l-.03.098-.084.275-.046.164c0 .03-.02.065-.028.096a22.87 22.87 0 00-.279 1.097l-.33-.103.322.14v.05c-.016.067-.02.106-.02.106.096.046.198.1.306.134 1.743.77 10.45 4.6 10.896 5.194.498.648 3.786 2.54 6.775.946s3.635-4.033 3.635-4.033 2.89-4.035 2.99-4.626 2.34-1.286 2.34-1.286.2 6.683-.947 9.115-3.287 13.246-3.287 13.246a1.54 1.54 0 01.423-.026l-.125.624a1.41 1.41 0 01.526 0c-.158 1.227-1.072 6.94-1.072 6.94s-.3 2.592-.8 3.486-.546 5.578-.546 5.578l-.797 3.388s.105.234.302.583v.013s.855 1.913 2.297 2.984a6.157 6.157 0 01-.4 1.543c-.51.995-.4 2.4-.4 2.4s-.844 3.833-.747 4.93-.567 3.784-.567 3.784l-.896 8.665s-.597 7.52-.298 9.562-.2 4.83-.2 4.83.598 5.927.447 6.572-.896 3.437-.446 4.982.2 5.776.2 5.776.298 5.58.646 7.372-.1 4.084-.1 4.084-.35 3.835-.5 3.835-1.445 2.638 1.194 5.23 1 2.184 1 2.184-2.092-1.046-1.842 1.095c.235 2.04.564 1.507.595 1.45l-.5 1.638a11.28 11.28 0 00.349.048l-.29.35a7.89 7.89 0 01-1.005 1.049c-.598.447-.65 1.442-.65 1.442s-3.683 4.035-7.12 6.076c-1.807 1.075-3.37 1.985-4.048 2.735-.612.676-.5 1.224.766 1.648 2.7.897 7.42 1.344 10.805.2a12.593 12.593 0 005.278-3.436s2.144-1.098 4.235-.7 6.274-2.34 6.274-2.34l-.3-2.74s-.5-.6-.35-1.244c.07-.293-.035-1.048-.17-1.8a23.31 23.31 0 00-.113-.577l.383-.072s-.495-2.54.4-3.04.646-7.022.646-7.022-1.146-1.494-1.744-1.743-.05-3.34.05-3.735.896-8.117.896-8.117-.298-2.44.1-3.486-.498-5.08-.498-5.08-.298-.498.255-1.097.34-5.9.34-5.9l-.05-3.388c0-.7.598-3.236 1.144-4.082s.202-3.488.202-3.488l.03-.198c0-.074.026-.172.044-.282l.046-.257c.24-1.46.562-2.903.97-4.324.648-2.092 1.396-5.776 1.396-5.776l4.694-12.317s2.14 3.984 2.14 7.673c0 0 .55 4.43.4 5.626s.45 6.822.45 6.822l.646 8.416c0 .35.796 6.575 1.296 7.524s-.5 3.832-.8 4.13.1 7.622.1 7.622l-.896 6.97c-.148 1.196-.748 5.78-.255 7.573s.298 2.04.298 2.04 1.787 1.843.748 1.992-2.636 1.494-1.993 3.635 2.195 5.33 2.195 5.33l.824-.174v.59l.062 2.97s.347 2.827.148 3.487c-.146.47-.345 2.704-.442 3.856l-.056.712s0 2.637 5.526 1.843 6.524-3 6.524-3l.04-.275c.082-.514.256-1.57.406-2.164.202-.8-1.6-4.385-1.6-4.385s-.3-2.437-.8-2.987a2.653 2.653 0 01-.4-1.046 9.656 9.656 0 01-.118-.614 4.19 4.19 0 01.367.066s-.298-1.742.85-2.292.845-1.692.697-2.2.447-3.285.447-3.285a1.635 1.635 0 01.398-1.594c.7-.7 1.246-5.58 1.246-5.58l.12-18.803s.35-3.342-.05-4.684-.8-3.932-.255-4.626.05-3.933.05-3.933 0-6.825.745-8.516.5-12.402.5-12.402l.197-7.02s1.626-1.543 1.24-9.634c1.737-.108 3.694-.173 4 .07.547.446 4.085 2.74 6.175 1.284.45-.2 2.49-1.943 2.49-1.943l-.878-14.932a44.14 44.14 0 01.88 1.386c0-2.093 5.87-8.866 5.87-8.866s5.478-7.12 6.672-7.968 3.536-5.33 3.536-5.33a21.9 21.9 0 011.197-2.49c.54-.902-1.25-3.293-1.052-3.843z"/>
        <path id="T" d="M1285 238.895s1.826-8.85 7.705-8.895l4.295 8.166-2.864 1.825s-6.223.183-9.136-1.096z"/>
        <path id="U"
              d="M1297 238.163l-2.864 1.828s-4.366.128-7.5-.584a9.154 9.154 0 01-1.626-.513s0-.047.033-.142v-.034c.27-1.11.642-2.2 1.113-3.252l.606-1.216c.86-1.53 2.07-3.032 3.724-3.775a5.418 5.418 0 011.96-.475h.262l.092.18 1.454 2.762z"/>
        <path id="V"
              d="M1346.38 277.397s6.005-.593 6.543-.15 3.946 2.718 5.965 1.285.673-6.42.673-6.618l-.2-7.258-3.6-4.987-4.522-8.732L1342 250l.25 13.868-.047 7.11z"/>
        <path id="W"
              d="M1290 229.963s-.488 5.94-4.224 6.037c0 0-1.057-.633-2.48-1.687-3.28-2.433-8.49-7.1-7.05-11.46 2.064-6.233 12.085 5.26 12.085 5.26l.767.856z"/>
        <path id="X"
              d="M1291 229.132s-.556 6.76-4.8 6.868c0 0-1.205-.72-2.826-1.92l-.364-.46a5.6 5.6 0 002.328.619c1.068.023 2.27-.37 3.04-1.896a24 24 0 001.164-2.682 7.846 7.846 0 00.431-1.662z"/>
        <path id="Y"
              d="M1289.352 240l-.88-1.05-2.966-3.534-1.507-1.805a5.385 5.385 0 002.138.535c.98.02 2.084-.317 2.795-1.634a20.1 20.1 0 001.069-2.31c.49-1.287.478-1.95.307-2.172s1.1.865 1.697 1.4l.02.02.286.248 1.593 2.956.016.117c.136.878.638 6.44-4.57 7.23z"/>
        <path id="Z"
              d="M1319 367.378s-4.225 2.537-6.337 2.158-4.277.648-4.277.648c-1.456 1.458-3.29 2.553-5.335 3.182-3.42 1.06-8.197.646-10.913-.187-1.287-.4-1.39-.9-.77-1.523.688-.698 2.265-1.54 4.092-2.535 3.47-1.9 7.192-5.626 7.192-5.626s.05-.92.654-1.336a7.51 7.51 0 001.015-.96c.54-.585 1.046-1.2 1.046-1.2l12.428.37a33.48 33.48 0 00.377 1.661c.138.69.246 1.4.175 1.66-.152.597.353 1.15.353 1.15l.223 1.883z"/>
        <path id="a"
              d="M1342.986 369.784c-.142.557-.313 1.556-.4 2.026l-.04.256s-.956 2.048-6.256 2.794-5.3-1.724-5.3-1.724l.055-.665.422-3.617c.19-.605-.142-3.258-.142-3.258l-.097-4.7 8.787-.886c.056.64.15 1.278.284 1.907.054.346.186.677.384.97.477.515.765 2.793.765 2.793s1.714 3.37 1.528 4.115z"/>
        <path id="b"
              d="M1318.648 360.403l.352 1.8c-1.254.245-6.738 1.256-8.1.55-1.55-.8-4.9-1.25-4.9-1.25l.056-.203.978-1.3z"/>
        <path id="c"
              d="M1342 363.038c-2.464-.39-7.837.555-9.956.962l-.044-2.058 9.688-.942c.06.684.165 1.365.312 2.038z"/>
        <path id="d"
              d="M1346.7 287.823l-.2 6.94s.26 10.585-.498 12.26-.75 8.418-.75 8.418.5 3.2-.05 3.887-.15 3.252.26 4.58.046 4.63.046 4.63l-.098 18.608s-.548 4.824-1.248 5.515a1.598 1.598 0 00-.397 1.575s-.6 2.755-.45 3.25.45 1.623-.698 2.163-.85 2.266-.85 2.266c-2.743-.64-10.523 1.086-10.523 1.086s-1.557-3.152-2.197-5.27.95-3.445 1.995-3.584-.748-1.97-.748-1.97.2-.256-.298-2.018.1-6.303.26-7.484l.897-6.892s-.397-7.236-.098-7.533 1.297-3.15.8-4.096-1.298-7.1-1.298-7.425-.648-8.32-.648-8.32-.597-5.564-.45-6.744-.4-5.56-.4-5.56c0-3.646-2.142-7.584-2.142-7.584l-.055.14-4.636 12.034s-.747 3.64-1.398 5.7a36.997 36.997 0 00-.973 4.273l-.044.256-.044.277-.03.2s.347 2.608-.2 3.446-1.17 3.346-1.17 4.045l.047 3.35s.202 5.267-.348 5.86-.26 1.083-.26 1.083.9 3.986.5 5.02-.098 3.444-.098 3.444l-.88 8.014c-.088.4-.648 3.446-.052 3.692s1.746 1.723 1.746 1.723.26 6.45-.646 6.94-.402 3.004-.402 3.004-7.23 1.38-8.878.59-5.188-1.232-5.188-1.232l.495-1.618c-.028.057-.358.58-.594-1.434-.26-2.117 1.847-1.083 1.847-1.083s1.645.395-1-2.166-1.347-5.17-1.197-5.17.498-3.8.498-3.8.45-2.265.1-4.037-.646-7.287-.646-7.287.26-4.183-.2-5.7.298-4.283.45-4.925-.45-6.5-.45-6.5.5-2.754.2-4.772.3-9.453.3-9.453l.898-8.567s.646-2.657.548-3.74.747-4.865.747-4.865-.1-1.38.4-2.363.7-4.233.7-4.233l4.79-10.832 2.335-9.55 31.676-.295.306 2.332.778 6.486.872 8.705c.934 10.428-1.06 12.3-1.06 12.3z"/>
        <path id="e"
              d="M1344 201.625l-7.447 7.375s-9.553-3.548-8.55-4.76c.4-.47.327-1.94.102-3.587-.353-2.582-1.106-5.56-1.106-5.56s16.697-2.518 15.287.093c-.523.956-.424 2.07-.105 3.1a11.35 11.35 0 001.818 3.341z"/>
        <path id="f"
              d="M1340.923 194.365c-.476 1.102-.7 1.208-.398 2.393-2 2.516-4.527 5.242-7.662 5.242-1.685.003-3.347-.454-4.855-1.336L1327 194.26s15.207-2.902 13.923.106z"/>
        <path id="g"
              d="M1345 189.954c.06 4.282-2.117 8.267-5.7 10.426a11.19 11.19 0 01-11.598 0c-3.583-2.16-5.76-6.144-5.7-10.426v-.17c.046-6.555 5.23-11.83 11.58-11.783s11.46 5.4 11.415 11.954z"/>
        <path id="h"
              d="M1346 267.777l-12.2.178-1.912.037c-6.65.132-13.202-1.474-15.832-1.167-5.594.648 2.006-6.38 2.006-6.38s6.053 1.997 12.74 1.59l1.608-.1c5.084-.357 10.193-.947 12.858-1.936l.733 7.777z"/>
        <path id="i"
              d="M1346 267.777c-1.506 0-6.526.068-12.134.175h-.067l-1.854.04h-.058c-6.65.132-13.202-1.474-15.832-1.17-5.594.648 2.006-6.374 2.006-6.374s6.053 1.993 12.74 1.6l1.608-.104c5.084-.353 10.193-.945 12.858-1.934l.733 7.777z"/>
        <path id="j"
              d="M1329.966 203.77l-9.012 4.23-6.954 54s4.114-1.867 6.465-.688 9.598.1 9.598.1 5.3-.297 6.075.294 10-2.458 10-2.458 1.666-3.74.392-4.328.393-6.394.393-6.394l-.785-38.952-1.566-5.016-4.214-2.558-4.315 3.443-2.037.294z"/>
        <path id="k"
              d="M1329.966 203.772l-9.012 4.23L1314 262s4.114-1.87 6.465-.688 9.598.097 9.598.097 5.3-.294 6.075.294 10-2.457 10-2.457 1.666-3.737.392-4.328.393-6.393.393-6.393l-.785-38.952-1.566-5.016-4.214-2.557-4.315 3.445-2.037.29z"/>
        <path id="l"
              d="M1330.723 206.807s2.492 3.144 2.446 3.794l-.14 2.196-1.883 4.045-1.034 6.1c0 1.05-1.646 10.126-1.646 10.126l-1.974 13.978-2.492 18.322 2.54 4.642 3-2.695 3.997-32.65.846-6.44.893-12.78c0-1.197-.517-4.343-.517-4.343s.612-2.996 3.15-3.695-.188-.15-.188-.15l-1.467-1.25-1.27.55s-3.516-1.14-4.27.257z"/>
        <path id="m"
              d="M1330.717 204.805s2.493 3.144 2.447 3.793l-.142 2.196-1.882 4.045-1.023 6.083c0 1.047-1.646 10.126-1.646 10.126l-2 14-2.48 18.308 2.542 4.645 2.998-2.703 4.003-32.642.847-6.44.893-12.78c0-1.2-.517-4.344-.517-4.344s.612-2.993 3.152-3.694-.188-.148-.188-.148l-1.47-1.25-1.25.545s-3.54-1.145-4.294.26z"/>
        <path id="n" d="M1328.05 201s-.4.306-.51 2.35S1326 210 1326 210s5.333-3.684 8-3.274z"/>
        <path id="o" d="M1328.05 201s-.4.306-.51 2.353S1326 210 1326 210s5.333-3.68 8-3.27z"/>
        <path id="p" d="M1342.543 200l-8.543 6.986 8.126 4.95c.937.972 1.874-9.51 1.874-9.51z"/>
        <path id="q" d="M1342.524 199l-8.524 6.986 8.123 4.95c.94.972 1.877-9.515 1.877-9.515z"/>
        <path id="r"
              d="M1328.847 202.073s-.9-.438-1.748.83-2.447 1.85-2.447 1.85-9.092 1.414-9.44 2.582l-4.245.254s-1.5.192-1.65 3.264-.958 3.356-.958 3.356-1.748 3.02-1.6 4.58-1.35 2.34-1.35 2.34l6.235 15.838s.2 6.532-.95 8.92-3.297 12.964-3.297 12.964.9-.195.85.388-1.1 6.97-1.1 6.97-.298 2.535-.797 3.412-.55 5.46-.55 5.46l-.8 3.312s1.9 4.144 4.795 3.548 8.175-11.633 8.175-11.633l3.346-11.94 2.598-11.794.748-7.99 1.2-17.692 1.75-11.697s1.937-6.3 1.236-7.12z"/>
        <path id="s"
              d="M1327.848 202.073s-.9-.438-1.75.83-2.45 1.852-2.45 1.852-9.1 1.412-9.45 2.583l-4.25.253s-1.5.195-1.65 3.265-.95 3.363-.95 3.363-1.75 3.02-1.6 4.58-1.35 2.34-1.35 2.34l6.24 15.838s.2 6.532-.948 8.92-3.3 12.964-3.3 12.964.9-.195.85.4-1.1 6.968-1.1 6.968-.3 2.535-.8 3.412-.55 5.46-.55 5.46l-.793 3.302s1.9 4.144 4.8 3.548 8.15-11.646 8.15-11.646l3.35-11.94 2.6-11.797.752-7.99 1.198-17.692 1.75-11.697s1.948-6.276 1.248-7.105z"/>
        <path id="t"
              d="M1297 238.213l-2.797 1.778s-4.264.125-7.334-.568l-1.555-.637-.314-.125.32.093c1.613.44 2.875.43 3.86.127 3.96-1.226 3.512-7.244 3.37-8.606l-.033-.26V230l.022.035a1.68 1.68 0 00.183.23l.176.174 1.397 2.572.015.11z"/>
        <path id="u"
              d="M1306.957 219l-1.384.396-.198 2.832s-1.633-.258-2.078 1.683-1.235 2.832-1.235 2.832-2.72 2.278-2.87 4.206l-1.68 1.03s-3.91-.912-4.796-2.485c0 0 1.78 12.77-7.716 9.65 0 0 10.633 4.654 11.126 5.298s3.76 2.522 6.726.94 3.61-4.02 3.61-4.02 2.868-4 2.968-4.605 2.315-1.287 2.315-1.287l4.254-10.296z"/>
        <path id="v"
              d="M1341.042 205.46l1.493-6.46s.67 2.105 1.34 2.593l2.216 1.614s2.216.98 2.987.98 4.947 1.018 5.46 1.565 2.578.147 2.578.147l3.194.88c1.495.344 2.216 2.693 1.905 3.622-.253.94.02 1.938.724 2.642.616.588.927 2.496.927 2.496a2.977 2.977 0 011.75 1.418c.517 1.076.36 3.425.36 3.425l-7.677 10.277s.102 3.965-.206 4.835 1.072 15.855 1.072 15.855l1.607 25.74s-2.11 1.712-2.575 1.908-.93-9.103-.93-9.444-11.9-16.932-11.9-16.932-1.607-2.448-1.607-2.985-1.495-5.482-1.495-5.482l-2.267-9.54z"/>
        <path id="w"
              d="M1365.998 219.838l-.02.56-7.673 10.267s.107 3.962-.204 4.835c-.18.51.215 5.776.58 10.1l.503 5.752 1.595 25.737s-2.112 1.712-2.576 1.908-.927-9.102-.927-9.446-11.907-16.926-11.907-16.926-1.608-2.448-1.608-2.985-1.493-5.48-1.493-5.48l-2.268-9.542 1.03-29.16.876-6.458s1.3 2.104 1.96 2.6l2.213 1.616s2.217.98 2.992.98 4.948 1.018 5.462 1.565 2.58.147 2.58.147 1.7.537 3.192.88 2.217 2.693 1.91 3.62c-.255.94.017 1.938.72 2.643.62.588.928 2.494.928 2.494.76.236 1.4.747 1.753 1.422.362.76.397 2.117.384 2.88z"/>
        <path id="x" d="M1306 351c.246 0 10.187.473 9.997 2.483S1306 351 1306 351z"/>
        <path id="y" d="M1307 353s7.677 1.43 5.663 2.74S1307 353 1307 353z"/>
        <path id="z" d="M1334 350s11.55 1.038 9.824 2.382-5.825 1.555-6.022 1.617-3.802-4-3.802-4z"/>
        <path id="AA" d="M1332 355s5.82 1.268 5.996 2.7S1332 355 1332 355z"/>
        <path id="AB" d="M1335 324s5.666 1.793 6 3z"/>
        <path id="AC" d="M1312.582 329s-3.485 1.152-.1 3.456.1-3.456.1-3.456z"/>
        <path id="AD" d="M1327 283c.352 0 5.825-1.495 7.73-.83s4.27.664 4.27.664z"/>
        <path id="AE" d="M1328 287.672l-.062.483-5.252 11.94-1.584 5.665A32.883 32.883 0 001320 310l4.664-25z"/>
        <path id="AF" d="M1334 265.967l-2.474.033h-.077l-1.45-4.91 2.146-.09z"/>
        <path id="AG" d="M1357 260.798l-5.1 4.444s-10.616 6-13.54.302c-2.58-5.02 9.457-8.603 12.355-9.385l.618-.16z"/>
        <path id="AH" d="M1309 212s2.398 1.105 2.942 2.657S1309 212 1309 212z"/>
        <path id="AI" d="M1305 226s-4.342 4.168-2.58 5.772S1305 226 1305 226z"/>
        <path id="AJ" d="M1361 214s-3.872.3-4 3z"/>
        <path id="AK" d="M1333 255c.306-.3 7.364-10.874 9-9.942z"/>
        <path id="AL"
              d="M1345 190.865a11.949 11.949 0 01-1.36 5.556l-.085-.015c-.73-.157-1.11-1.03-1.667-1.57a2.222 2.222 0 00-2.608-.375 2.735 2.735 0 00-1.282 2.539c-.367-1.584-.25-3.27-.6-4.856s-1.443-3.192-2.923-3.22c-.638 0-1.385.24-1.845-.258-.28-.295-.336-.77-.545-1.12-1.058-1.754-4.272-.866-5.594.03-1.272.865-2.845 2.336-4.48 3.107.046-6.5 5.232-11.732 11.583-11.685s11.462 5.355 11.417 11.855z"/>
        <path id="AM"
              d="M1332.033 185.568c.212.357.267.824.547 1.117.46.487 1.2.238 1.85.256 1.484.026 2.57 1.63 2.93 3.215s.252 3.263.613 4.844a2.72 2.72 0 011.287-2.531 2.237 2.237 0 012.614.372c.56.542.94 1.4 1.67 1.566s1.437-.557 1.7-1.343.252-1.645.418-2.46c.33-1.54 1.316-2.8 1.863-4.263a7.867 7.867 0 00-.05-5.515c-.364-.927-.905-1.76-1.26-2.688-.56-1.407-.706-2.993-1.384-4.334-1.142-2.243-3.83-3.368-6.037-2.523-1.053.403-1.968 1.183-3.037 1.54-1.434.467-2.964.116-4.448-.095s-3.12-.23-4.313.77c-1.37 1.143-1.746 3.292-3.024 4.547-.542.526-1.215.863-1.787 1.35s-1.064 1.212-1.008 2.005c.085 1.027 1.068 1.952.705 2.9a2.343 2.343 0 01-.537.721 10.328 10.328 0 00-2.346 4.067c2.593.824 5.4-2.087 7.43-3.463 1.313-.917 4.542-1.792 5.603-.054z"/>
        <path id="AN" d="M1358 261.945l-1.455 1.055c-1.282-1.875-6.545-5.644-6.545-5.644l.228-.193.765-.163z"/>
        <path id="AO"
              d="M1358 259.106l-.94 2.337c-.477 1.087-.996 2.063-1.022 1.265-.05-1.574-6.038-6.856-6.038-6.856l.805-.86.943-.993z"/>
        <path id="AP"
              d="M1359.308 250.867L1360 262c-1.64-2.4-6.116-8.6-9-8.4l6.993-7.632c.3-.308.56-.635.8-.978l.514 5.867z"/>
        <path id="B"
              d="M1256 362s-11.7-21.117-29.334-27.202c-7.4-2.554-13.858-7.358-18.273-13.922A62.207 62.207 0 011203 311"/>
        <path id="AR"
              d="M1363.584 219l1.826 1.376s3.042.052 3.348 2.5 3.095 3.582 3.095 3.582 2.08 2.016 2.08 2.95 1.582 2.61 1.582 2.755 1.523 3.15 1.32 3.69 1.623 2.903 1.055 3.788a21.45 21.45 0 00-1.219 2.459s-2.375 4.428-3.602 5.265-6.797 7.87-6.797 7.87-5.987 6.7-5.987 8.757c0 0-5.836-9.445-9.285-9.2l6.747-7.526s1.17-1.228 1.22-1.968 3.246-4.13 4.768-4.28c0 0 .264-2.015-.406-2.064s-1.217-1.625-1.217-1.625-4.464-5.116-4.514-8.363 5.987-9.964 5.987-9.964z"/>
        <path id="AS" d="M1367 224s-4.905 2.933-3.852 3.877S1367 224 1367 224z"/>
        <path id="AT" d="M1366 236s8.165-2.25 9 0z"/>
        <path id="AU"
              d="M1319 366.727s-4.225 2.787-6.337 2.37-4.277.712-4.277.712a12.723 12.723 0 01-5.335 3.495c-3.42 1.164-8.197.71-10.913-.205-1.287-.43-1.39-.988-.77-1.673 2.953.593 9.554 1.77 11.333.914 2.313-1.114 5.633-3.545 5.633-3.545s4.33-.61 4.932-.61c.43 0 3.77-1.388 5.657-2.186z"/>
        <path id="AV"
              d="M1343 373l-.04.322s-1 2.567-6.474 3.502-5.485-2.16-5.485-2.16l.057-.835c1.734.773 5.523 1.645 11.943-.83z"/>
        <path id="AW" d="M1312 223s0 10.864-.78 11.937S1312 223 1312 223z"/>
        <path id="AX" d="M1357 226l.95 4s.38-3.926-.95-4z"/>
        <path id="AY"
              d="M1321.297 184.9c.372-.922-.602-1.824-.73-2.8-.13.28-.185.584-.163.89.066.743.633 1.44.792 2.128.04-.066.073-.135.1-.207z"/>
        <path id="AZ"
              d="M1338.147 195.482c-.364-1.55-.264-3.2-.628-4.738s-1.513-3.173-3.067-3.198c-.67 0-1.455.237-1.94-.256-.3-.3-.35-.766-.57-1.1-1.11-1.743-4.487-.86-5.878.033-2.077 1.335-4.928 4.127-7.588 3.494a9.5 9.5 0 00-.346.909c2.716.82 5.656-2.077 7.78-3.446 1.386-.89 4.767-1.788 5.88-.033.22.355.28.82.572 1.11.483.486 1.267.238 1.938.256 1.554.025 2.692 1.622 3.07 3.198s.263 3.246.64 4.82a2.57 2.57 0 01.138-1.04z"/>
        <path id="Aa"
              d="M1345.776 193.645c-.264.782-1 1.497-1.782 1.336s-1.164-1.022-1.747-1.558a2.436 2.436 0 00-2.74-.37 2.658 2.658 0 00-1.346 2.38 2.574 2.574 0 011.196-1.422c.9-.456 2-.307 2.737.37.586.54.984 1.402 1.75 1.558s1.504-.554 1.78-1.336a6.49 6.49 0 00.28-1.41 3.835 3.835 0 01-.127.452z"/>
        <path id="Ab"
              d="M1348.156 186.956c-.57 1.455-1.605 2.712-1.948 4.245-.07.31-.108.625-.148.942.348-1.532 1.375-2.78 1.945-4.23a7.378 7.378 0 00.47-2.043 7.23 7.23 0 01-.32 1.086z"/>
        <path id="Ac"
              d="M1280.77 222.88c0-.21.17-.38.38-.38h.24c.21 0 .38.17.38.38v1.09c0 .21-.17.38-.38.38h-.24a.38.38 0 01-.38-.38z"/>
        <path id="Ad" d="M1273.13 225.43v-1h1v1z"/>
        <path id="Ae" d="M1273.74 226.68v-1.06h1v1.06z"/>
        <path id="Af" d="M1274.4 227.96v-1.07h1v1.07z"/>
        <path id="Ag"
              d="M1275.63 222.62a2.24 2.24 0 012.24-2.24h3.02a2.24 2.24 0 012.24 2.24v10.76a2.24 2.24 0 01-2.24 2.24h-3.02a2.24 2.24 0 01-2.24-2.24z"/>
        <path id="Ah"
              d="M1278.627 221.346a.25.25 0 00-.139.149.24.24 0 00.022.2l.025.047a.24.24 0 01.02.2.25.25 0 01-.14.149l-2.834 1.384a.263.263 0 01-.206.02.253.253 0 01-.154-.134l-.025-.05a.253.253 0 00-.155-.134.263.263 0 00-.206.02l-.552.268a.5.5 0 00-.257.288.481.481 0 00.03.38l6.028 11.593c.06.118.167.208.297.25.13.04.27.03.392-.03l4.945-2.414a.5.5 0 00.256-.287.481.481 0 00-.029-.379l-6.02-11.594a.507.507 0 00-.297-.247.526.526 0 00-.39.029z"/>
        <path id="Ai"
              d="M1275.5 221.65a.36.36 0 01.36-.36h.33a.36.36 0 01.36.36v.28a.36.36 0 01-.36.36h-.33a.36.36 0 01-.36-.36z"/>
        <path id="Aj" d="M1275.88 222a.12.12 0 11.24 0 .12.12 0 01-.24 0z"/>
        <path id="Ak"
              d="M1271 228.755v27.487a2.69 2.69 0 01-.846 1.952 2.961 2.961 0 01-2.047.806H1265v-33h3.107a2.962 2.962 0 012.046.805 2.69 2.69 0 01.847 1.95z"/>
        <path id="Al" d="M1269 226.052v32.896a2.84 2.84 0 01-.544.052H1268v-33h.456c.183 0 .365.017.544.052z"/>
        <path id="Am" d="M1248 357v-88h10v88z"/>
        <path id="An" d="M1243 369v-3h18v3z"/>
        <path id="Ao" d="M1243 368v-1h18v1z"/>
        <path id="Ap" d="M1248 357v-1h10v1z"/>
        <path id="Aq"
              d="M1239.417 356h25.166a10.43 10.43 0 017.366 3.046A10.392 10.392 0 011275 366.4v1.6h-46v-1.6c0-2.758 1.098-5.403 3.05-7.354a10.426 10.426 0 017.366-3.046z"/>
        <path id="Ar" d="M1248 292v-10h10v10z"/>
        <path id="As" d="M1248 291v-10h10v10z"/>
        <path id="At" d="M1246 292v-10h13v10z"/>
        <path id="Au"
              d="M1264 262.9v4.174c0 2.163-1.857 3.916-4.148 3.916h-14.704c-2.3 0-4.148-1.753-4.148-3.916v-4.173c0-1.038.438-2.033 1.216-2.767a4.274 4.274 0 012.932-1.144h14.704c1.1 0 2.154.41 2.932 1.144a3.806 3.806 0 011.216 2.767z"/>
        <path id="Av"
              d="M1264 263.027v.44c-2.736 3.487-6.99 5.534-11.5 5.534s-8.764-2.047-11.5-5.534v-.44c0-1.07.438-2.093 1.216-2.85a4.205 4.205 0 012.93-1.178h14.7c1.1-.003 2.156.42 2.936 1.176a3.974 3.974 0 011.218 2.851z"/>
        <path id="Aw"
              d="M1239.17 221h26.658a1.17 1.17 0 011.171 1.169v33.288c0 6.927-5.627 12.543-12.567 12.543h-3.866c-6.94 0-12.567-5.616-12.567-12.543V222.17a1.17 1.17 0 011.171-1.169z"/>
        <path id="Ax"
              d="M1244.5 205.003h16.98c2.49 0 4.5 2.013 4.5 4.496v12.88c0 .896-.728 1.62-1.625 1.62h-22.75c-.43 0-.844-.17-1.15-.475a1.618 1.618 0 01-.476-1.145v-12.884a4.503 4.503 0 014.51-4.496z"/>
        <path id="Ay" d="M1243 220v-1h20v1z"/>
        <path id="Az" d="M1241 243v-17h23v17z"/>
        <path id="BA"
              d="M1253.788 230.275v-1.096c0-.287.035-.57 0-.857-.3-.243-.546-.322-.757-.298-.516.055-.706.52-.816.942-.28 1.105-.105 2.354.3 3.673l-3.988.01c-.6.15-.686.917-.195 1.303.2.134.43.174.676.203-.25.12-.48.258-.536.526-.14.644.236.912.697.98-.246.114-.406.268-.466.486-.14.5.175 1.03.756 1.04-.255.13-.396.308-.42.54-.06.486.2.744.6.902a.63.63 0 00.326.065l.165.005h1.84l4.735.005v.005h.035l.937-.005c.185 0 .25-.288.165-.456l-.225-.452-.882-1.744-.03-.055-.3-.594z"/>
        <path id="BB"
              d="M1241.02 246.03a.79.79 0 01.79-.79h3.63a.79.79 0 01.79.79v.26a.79.79 0 01-.79.79h-3.63a.79.79 0 01-.79-.79z"/>
        <path id="BC"
              d="M1246.9 246.03a.79.79 0 01.79-.79h3.63a.79.79 0 01.79.79v.26a.79.79 0 01-.79.79h-3.63a.79.79 0 01-.79-.79z"/>
        <path id="BD"
              d="M1252.8 246.03a.79.79 0 01.79-.79h3.63a.79.79 0 01.79.79v.26a.79.79 0 01-.79.79h-3.63a.79.79 0 01-.79-.79z"/>
        <path id="BE"
              d="M1258.7 246.03a.79.79 0 01.79-.79h3.63a.79.79 0 01.79.79v.26a.79.79 0 01-.79.79h-3.63a.79.79 0 01-.79-.79z"/>
        <path id="BF"
              d="M1241.02 249.63a.79.79 0 01.79-.79h3.63a.79.79 0 01.79.79v.26a.79.79 0 01-.79.79h-3.63a.79.79 0 01-.79-.79z"/>
        <path id="BG"
              d="M1246.9 249.63a.79.79 0 01.79-.79h3.63a.79.79 0 01.79.79v.26a.79.79 0 01-.79.79h-3.63a.79.79 0 01-.79-.79z"/>
        <path id="BH"
              d="M1252.8 249.63a.79.79 0 01.79-.79h3.63a.79.79 0 01.79.79v.26a.79.79 0 01-.79.79h-3.63a.79.79 0 01-.79-.79z"/>
        <path id="BI"
              d="M1241.02 253.14a.79.79 0 01.79-.79h3.63a.79.79 0 01.79.79v.26a.79.79 0 01-.79.79h-3.63a.79.79 0 01-.79-.79z"/>
        <path id="BJ"
              d="M1246.9 253.14a.79.79 0 01.79-.79h3.63a.79.79 0 01.79.79v.26a.79.79 0 01-.79.79h-3.63a.79.79 0 01-.79-.79z"/>
        <path id="BK"
              d="M1252.8 253.14a.79.79 0 01.79-.79h3.63a.79.79 0 01.79.79v.26a.79.79 0 01-.79.79h-3.63a.79.79 0 01-.79-.79z"/>
        <path id="BL"
              d="M1241.02 257a.79.79 0 01.79-.79h3.63a.79.79 0 01.79.79v.26a.79.79 0 01-.79.79h-3.63a.79.79 0 01-.79-.79z"/>
        <path id="BM"
              d="M1246.9 257a.79.79 0 01.79-.79h3.63a.79.79 0 01.79.79v.26a.79.79 0 01-.79.79h-3.63a.79.79 0 01-.79-.79z"/>
        <path id="BN"
              d="M1252.8 257a.79.79 0 01.79-.79h3.63a.79.79 0 01.79.79v.26a.79.79 0 01-.79.79h-3.63a.79.79 0 01-.79-.79z"/>
        <path id="BO"
              d="M1258.7 249.63a.79.79 0 01.79-.79h3.63a.79.79 0 01.79.79v.26a.79.79 0 01-.79.79h-3.63a.79.79 0 01-.79-.79z"/>
        <path id="BP"
              d="M1259.02 254.13a1.97 1.97 0 011.97-1.97h.68a1.97 1.97 0 011.97 1.97v2.6a1.97 1.97 0 01-1.97 1.97h-.68a1.97 1.97 0 01-1.97-1.97z"/>
        <path id="BQ"
              d="M1241 244.8a.79.79 0 01.79-.79h3.42a.79.79 0 01.79.79v1.42a.79.79 0 01-.79.79h-3.42a.79.79 0 01-.79-.79z"/>
        <path id="BR"
              d="M1247 244.8a.79.79 0 01.79-.79h3.42a.79.79 0 01.79.79v1.42a.79.79 0 01-.79.79h-3.42a.79.79 0 01-.79-.79z"/>
        <path id="BS"
              d="M1253 244.8a.79.79 0 01.79-.79h3.42a.79.79 0 01.79.79v1.42a.79.79 0 01-.79.79h-3.42a.79.79 0 01-.79-.79z"/>
        <path id="BT"
              d="M1258 244.8a.79.79 0 01.79-.79h3.42a.79.79 0 01.79.79v1.42a.79.79 0 01-.79.79h-3.42a.79.79 0 01-.79-.79z"/>
        <path id="BU"
              d="M1241 248.8a.79.79 0 01.79-.79h3.42a.79.79 0 01.79.79v1.42a.79.79 0 01-.79.79h-3.42a.79.79 0 01-.79-.79z"/>
        <path id="BV"
              d="M1247 248.8a.79.79 0 01.79-.79h3.42a.79.79 0 01.79.79v1.42a.79.79 0 01-.79.79h-3.42a.79.79 0 01-.79-.79z"/>
        <path id="BW"
              d="M1253 248.8a.79.79 0 01.79-.79h3.42a.79.79 0 01.79.79v1.42a.79.79 0 01-.79.79h-3.42a.79.79 0 01-.79-.79z"/>
        <path id="BX"
              d="M1241 251.8a.79.79 0 01.79-.79h3.42a.79.79 0 01.79.79v1.42a.79.79 0 01-.79.79h-3.42a.79.79 0 01-.79-.79z"/>
        <path id="BY"
              d="M1247 251.8a.79.79 0 01.79-.79h3.42a.79.79 0 01.79.79v1.42a.79.79 0 01-.79.79h-3.42a.79.79 0 01-.79-.79z"/>
        <path id="BZ"
              d="M1253 251.8a.79.79 0 01.79-.79h3.42a.79.79 0 01.79.79v1.42a.79.79 0 01-.79.79h-3.42a.79.79 0 01-.79-.79z"/>
        <path id="Ba"
              d="M1241 255.8a.79.79 0 01.79-.79h3.42a.79.79 0 01.79.79v1.42a.79.79 0 01-.79.79h-3.42a.79.79 0 01-.79-.79z"/>
        <path id="Bb"
              d="M1247 255.8a.79.79 0 01.79-.79h3.42a.79.79 0 01.79.79v1.42a.79.79 0 01-.79.79h-3.42a.79.79 0 01-.79-.79z"/>
        <path id="Bc"
              d="M1253 255.8a.79.79 0 01.79-.79h3.42a.79.79 0 01.79.79v1.42a.79.79 0 01-.79.79h-3.42a.79.79 0 01-.79-.79z"/>
        <path id="Bd"
              d="M1258 248.8a.79.79 0 01.79-.79h3.42a.79.79 0 01.79.79v1.42a.79.79 0 01-.79.79h-3.42a.79.79 0 01-.79-.79z"/>
        <path id="Be"
              d="M1258 253.97a1.97 1.97 0 011.97-1.97h1.06a1.97 1.97 0 011.97 1.97v2.06a1.97 1.97 0 01-1.97 1.97h-1.06a1.97 1.97 0 01-1.97-1.97z"/>
        <linearGradient id="Bf" x1="1325.99" x2="1325.99" y1="377.01" y2="170.02" gradientUnits="userSpaceOnUse">
            <stop offset="0" stop-color="gray" stop-opacity=".25"/>
            <stop offset=".54" stop-color="gray" stop-opacity=".12"/>
            <stop offset="1" stop-color="gray" stop-opacity=".1"/>
        </linearGradient>
    </defs>
    <g transform="translate(-1169 -170)">
        <use xlink:href="#A" class="B E"/>
        <use fill="#fff" fill-opacity="0" stroke="#535461" stroke-width="2" xlink:href="#B" class="K"/>
        <g class="E">
            <use xlink:href="#C"/>
            <use xlink:href="#D"/>
            <use xlink:href="#E"/>
            <use xlink:href="#F"/>
            <use xlink:href="#G"/>
            <use xlink:href="#H"/>
            <use xlink:href="#I"/>
        </g>
        <use xlink:href="#C" class="C"/>
        <use xlink:href="#D" class="C"/>
        <use xlink:href="#E" class="C"/>
        <use xlink:href="#F" class="C"/>
        <use xlink:href="#G" class="C"/>
        <use xlink:href="#H" class="C"/>
        <use xlink:href="#I" class="C"/>
        <use fill="#fff" fill-opacity="0" stroke="#535461" stroke-width="2" xlink:href="#J" class="K"/>
        <g class="E">
            <use xlink:href="#K"/>
            <use xlink:href="#L"/>
            <use xlink:href="#M"/>
            <use xlink:href="#N"/>
            <use xlink:href="#O"/>
            <use xlink:href="#P"/>
            <use xlink:href="#Q"/>
            <use xlink:href="#R" class="B"/>
        </g>
        <use fill="url(#Bf)" xlink:href="#S"/>
        <use xlink:href="#T" class="D"/>
        <use xlink:href="#U" class="B"/>
        <use xlink:href="#V" class="D"/>
        <use xlink:href="#V" class="B"/>
        <use xlink:href="#W" class="G"/>
        <use xlink:href="#X" class="B"/>
        <use xlink:href="#Y" class="F"/>
        <g class="D">
            <use xlink:href="#Z"/>
            <use xlink:href="#a"/>
        </g>
        <use xlink:href="#b" class="B"/>
        <use xlink:href="#c" class="B"/>
        <use xlink:href="#d" class="I"/>
        <use xlink:href="#e" class="G"/>
        <use xlink:href="#f" class="B"/>
        <use xlink:href="#g" class="G"/>
        <use xlink:href="#h" class="B"/>
        <use fill="#e3a79f" xlink:href="#i"/>
        <use xlink:href="#j" class="B"/>
        <use xlink:href="#k" class="F"/>
        <use xlink:href="#l" class="B"/>
        <use xlink:href="#m" class="I"/>
        <use xlink:href="#n" class="B"/>
        <use xlink:href="#o" class="F"/>
        <use xlink:href="#p" class="B"/>
        <use xlink:href="#q" class="F"/>
        <use xlink:href="#r" class="B"/>
        <use xlink:href="#s" class="D"/>
        <use xlink:href="#t" class="B"/>
        <use xlink:href="#u" class="D"/>
        <use xlink:href="#v" class="B"/>
        <use xlink:href="#w" class="D"/>
        <use xlink:href="#x" class="B"/>
        <use xlink:href="#y" class="B"/>
        <use xlink:href="#z" class="B"/>
        <use xlink:href="#AA" class="B"/>
        <use xlink:href="#AB" class="B"/>
        <use xlink:href="#AC" class="B"/>
        <use xlink:href="#AD" class="B"/>
        <use xlink:href="#AE" class="B"/>
        <use xlink:href="#AF" class="I"/>
        <use xlink:href="#AG" class="G"/>
        <use xlink:href="#AH" class="B"/>
        <use xlink:href="#AI" class="B"/>
        <use xlink:href="#AJ" class="B"/>
        <use xlink:href="#AK" class="B"/>
        <use xlink:href="#AL" class="B"/>
        <use fill="#7c5c5c" xlink:href="#AM"/>
        <use xlink:href="#AN" class="B"/>
        <use xlink:href="#AO" class="F"/>
        <use xlink:href="#AP" class="B"/>
        <use xlink:href="#AQ" class="B"/>
        <use xlink:href="#AR" class="D"/>
        <use xlink:href="#AS" class="B"/>
        <use xlink:href="#AT" class="B"/>
        <use xlink:href="#AU" class="B"/>
        <use xlink:href="#AV" class="B"/>
        <use xlink:href="#AW" class="B"/>
        <use xlink:href="#AX" class="B"/>
        <g class="B">
            <use xlink:href="#AY" class="B"/>
            <use xlink:href="#AZ" class="B"/>
            <use xlink:href="#Aa" class="B"/>
            <use xlink:href="#Ab" class="B"/>
        </g>
    </g>
    <g fill="#3a3768">
        <use xlink:href="#Ac" transform="rotate(333 338.738 2598.64)"/>
        <use xlink:href="#Ad" transform="rotate(333 331.377 2599.185)"/>
        <use xlink:href="#Ae" transform="rotate(333 332.238 2601.14)"/>
        <use xlink:href="#Af" transform="rotate(333 332.738 2602.14)"/>
        <use xlink:href="#Ag" transform="rotate(333 337.238 2603.14)"/>
    </g>
    <use xlink:href="#Ah" transform="translate(-1169 -170)" class="E"/>
    <g fill="#e6e8ec">
        <use xlink:href="#Ai" transform="rotate(333 333.738 2597.14)"/>
        <use xlink:href="#Aj" transform="translate(-1169 -170)"/>
    </g>
    <use xlink:href="#Ak" transform="translate(-1169 -170)" class="H"/>
    <use xlink:href="#Al" opacity=".2" transform="translate(-1169 -170)"/>
    <use xlink:href="#Am" transform="translate(-1169 -170)" class="J"/>
    <use xlink:href="#An" transform="translate(-1169 -170)" class="H"/>
    <use xlink:href="#Ao" transform="translate(-1169 -170)" class="B"/>
    <use xlink:href="#Ap" transform="translate(-1169 -170)" class="B"/>
    <use xlink:href="#Aq" transform="translate(-1169 -170)" class="J"/>
    <use xlink:href="#Ar" transform="translate(-1169 -170)" class="B"/>
    <use xlink:href="#As" transform="translate(-1169 -170)" class="B"/>
    <use xlink:href="#At" transform="translate(-1169 -170)" class="J"/>
    <use xlink:href="#Au" transform="translate(-1169 -170)" class="H"/>
    <use xlink:href="#Av" transform="translate(-1169 -170)" class="B"/>
    <g class="H" transform="translate(-1169 -170)">
        <use xlink:href="#Aw"/>
        <use xlink:href="#Ax"/>
    </g>
    <use xlink:href="#Ay" opacity=".2" transform="translate(-1169 -170)"/>
    <use xlink:href="#Az" transform="translate(-1169 -170)" class="B"/>
    <use xlink:href="#Az" transform="translate(-1169 -170)" class="E"/>
    <use fill="#4943ae" xlink:href="#BA" transform="translate(-1169 -170)"/>
    <g transform="translate(-1169 -170)" class="B">
        <use xlink:href="#BB" class="B"/>
        <use xlink:href="#BC" class="B"/>
        <use xlink:href="#BD" class="B"/>
        <use xlink:href="#BE" class="B"/>
        <use xlink:href="#BF" class="B"/>
        <use xlink:href="#BG" class="B"/>
        <use xlink:href="#BH" class="B"/>
        <use xlink:href="#BI" class="B"/>
        <use xlink:href="#BJ" class="B"/>
        <use xlink:href="#BK" class="B"/>
        <use xlink:href="#BL" class="B"/>
        <use xlink:href="#BM" class="B"/>
        <use xlink:href="#BN" class="B"/>
        <use xlink:href="#BO" class="B"/>
        <use xlink:href="#BP" class="B"/>
    </g>
    <g fill="#f2f3f3" transform="translate(-1169 -170)">
        <use xlink:href="#BQ"/>
        <use xlink:href="#BR"/>
        <use xlink:href="#BS"/>
    </g>
    <use fill="#d44f6a" xlink:href="#BT" transform="translate(-1169 -170)"/>
    <g fill="#f2f3f3" transform="translate(-1169 -170)">
        <use xlink:href="#BU"/>
        <use xlink:href="#BV"/>
        <use xlink:href="#BW"/>
        <use xlink:href="#BX"/>
        <use xlink:href="#BY"/>
        <use xlink:href="#BZ"/>
        <use xlink:href="#Ba"/>
        <use xlink:href="#Bb"/>
        <use xlink:href="#Bc"/>
    </g>
    <use fill="#fecb42" xlink:href="#Bd" transform="translate(-1169 -170)"/>
    <use fill="#97d25e" xlink:href="#Be" transform="translate(-1169 -170)"/>
</svg>